<?xml version="1.0" encoding="UTF-8" standalone="yes"?>

<svg xmlns="http://www.w3.org/2000/svg" height="360" width="500"
     version="1.1" viewBox="0 0 500 360">

<rect x="0" y="0" width="500" height="360" fill="none" />

<g transform="translate(0, 0)">
<rect x="10" y="10" width="480" height="150" stroke="black" fill="#c0c0c0" />

<text x="250" y="35" font-family="Ubuntu" font-size="18"
	  text-anchor="middle" dominant-baseline="text-after-edge"
      fill="#black">Debian package A</text>

<rect x="20" y="55" width="180" height="95" stroke="black" fill="none"
	  stroke-dasharray="3,3" />
<text x="110" y="110" font-family="Ubuntu" font-size="15"
	  text-anchor="middle" dominant-baseline="text-after-edge"
      fill="#black">A_slice1</text>
<rect x="170" y="45" width="180" height="95" stroke="black" fill="none"
	  stroke-dasharray="3,3" />
<text x="260" y="100" font-family="Ubuntu" font-size="15"
	  text-anchor="middle" dominant-baseline="text-after-edge"
      fill="#black">A_slice2</text>
<rect x="360" y="45" width="120" height="105" stroke="black" fill="none"
	  stroke-dasharray="3,3" />
<text x="420" y="105" font-family="Ubuntu" font-size="15"
	  text-anchor="middle" dominant-baseline="text-after-edge"
      fill="#black">A_slice3</text>
</g>

<g transform="translate(30, 220)">
<rect x="10" y="10" width="410" height="120" stroke="black" fill="#c0c0c0" />

<text x="225" y="125" font-family="Ubuntu" font-size="18"
	  text-anchor="middle" dominant-baseline="text-after-edge"
      fill="#black">Debian package B</text>

<rect x="20" y="20" width="140" height="75" stroke="black" fill="none"
	  stroke-dasharray="3,3" />
<text x="90" y="65" font-family="Ubuntu" font-size="15"
	  text-anchor="middle" dominant-baseline="text-after-edge"
      fill="#black">B_slice1</text>

<rect x="170" y="20" width="240" height="75" stroke="black" fill="none"
	  stroke-dasharray="3,3" />
<text x="290" y="65" font-family="Ubuntu" font-size="15"
	  text-anchor="middle" dominant-baseline="text-after-edge"
      fill="#black">B_slice2</text>

<path d="M 90,20 l 0,-90" stroke="black" fill="none"
      stroke-dasharray="3,3" />
<path d="M 90,-70 l 4,8 -8,0 z" stroke="black" fill="black" />

<path d="M 250,20 c 0,-70 -130,-20 -130,-90" stroke="black" fill="none"
      stroke-dasharray="3,3" />
<path d="M 120,-70 l 4,8 -8,0 z" stroke="black" fill="black" />

<path d="M 260,20 l 0,-100" stroke="black" fill="none"
      stroke-dasharray="3,3" />
<path d="M 260,-80 l 4,8 -8,0 z" stroke="black" fill="black" />

<path d="M 390,10 l 0,-70" stroke="black" fill="none" />
<path d="M 390,-60 l 4,8 -8,0 z" stroke="black" fill="black" />
</g>
</svg>
